<svg xmlns="http://www.w3.org/2000/svg" width="280.536" height="162.464" viewBox="0 0 280.536 162.464">
  <g id="Group_30" data-name="Group 30" transform="translate(-47 -1816)">
    <text id="Dumb" transform="translate(178 1886)" fill="#0bf593" font-size="72" font-family="HelveticaNeue-Bold, Helvetica Neue" font-weight="700" letter-spacing="-0.02em"><tspan x="-100.476" y="0">Dumb</tspan></text>
    <text id="Ga" transform="translate(95 1954)" fill="#0bf593" font-size="72" font-family="HelveticaNeue-Bold, Helvetica Neue" font-weight="700" letter-spacing="-0.02em"><tspan x="-47.268" y="0">Ga</tspan></text>
    <text id="in" transform="translate(236 1954)" fill="#0bf593" font-size="72" font-family="HelveticaNeue-Bold, Helvetica Neue" font-weight="700" letter-spacing="-0.02em"><tspan x="-29.916" y="0">in</tspan></text>
    <rect id="Rectangle_17" data-name="Rectangle 17" width="5" height="6" transform="translate(322.897 1943.148) rotate(28)" fill="#585858"/>
    <path id="Path_15" data-name="Path 15" d="M3415,1488.018s-.258-29.136,19.112-38.729,37.925-4.762,52.518,2.244S3533.2,1478.08,3540,1498.1s-12.384,24.88-19.23,18.678-9.4-14.892-4.784-20.979,12.008-7.008,15.049-6.4a16.691,16.691,0,0,1,11.424,7.191c4.092,5.592,2.027,15.961-2.459,19.184s-8.254,1.962-13.475,0-9.079-7.4-10.539-12.205.325-11.458,3-14.169,6.192-2.807,10.029-1.383,11.425,5.959,9.067,21.659-22.972,10.034-26.155.906-3.111-18.246,2.129-22.565,12.553-3.948,16.978-2.123,11.069,6.3,12.2,17.674.554,33.982-6.751,37.413c-4.215,1.979-10.43,3.377-15.719,2.392-3.353-.623-6.172-4.159-7.935-4.514-4.168-.84,4.6-5.96,14.505-8.683s14.034-3.713,17.43-2.411-.2,10.43-4.1,12.482-13.309,4.955-19.9,3.126-7.9-9.3-6.713-11.694,11.5-2.082,16.978-2.144,16.871.91,11.424,2.144c-.731.166-2.543,2.572-5.971,4.856a35,35,0,0,1-7.242,3.255c-6.776,2.074-14.938,2.467-19.19-.36-4.948-5.378,3.879-11.179,8.17-11.664s12.93-.65,19.857-1.217,14.709-3.365,18.628-5.976a18.763,18.763,0,0,0,5.5-5.274" transform="translate(-3239 433)" fill="none" stroke="#585858" stroke-width="3"/>
    <path id="Path_12" data-name="Path 12" d="M3415,1488.018s-.258-29.136,19.112-38.729,37.925-4.762,52.518,2.244S3533.2,1478.08,3540,1498.1s-12.384,24.88-19.23,18.678-9.4-14.892-4.784-20.979,12.008-7.008,15.049-6.4a16.691,16.691,0,0,1,11.424,7.191c4.092,5.592,2.027,15.961-2.459,19.184s-8.254,1.962-13.475,0-9.079-7.4-10.539-12.205.325-11.458,3-14.169,6.192-2.807,10.029-1.383,11.425,5.959,9.067,21.659-22.972,10.034-26.155.906-3.111-18.246,2.129-22.565,12.553-3.948,16.978-2.123,11.069,6.3,12.2,17.674.554,33.982-6.751,37.413c-4.215,1.979-10.43,3.377-15.719,2.392-3.353-.623-6.172-4.159-7.935-4.514-4.168-.84,4.6-5.96,14.505-8.683s14.034-3.713,17.43-2.411-.2,10.43-4.1,12.482-13.309,4.955-19.9,3.126-7.9-9.3-6.713-11.694,11.5-2.082,16.978-2.144,16.871.91,11.424,2.144c-.731.166-2.543,2.572-5.971,4.856a35,35,0,0,1-7.242,3.255c-6.776,2.074-14.938,2.467-19.19-.36-4.948-5.378,3.879-11.179,8.17-11.664s12.93-.65,19.857-1.217,16.782-2.868,20.7-5.479a18.3,18.3,0,0,0,5.336-4.958" transform="translate(-3241 432)" fill="none" stroke="#707070" stroke-width="3"/>
    <rect id="Rectangle_18" data-name="Rectangle 18" width="4" height="4" transform="translate(324.004 1941.355) rotate(28)" fill="#adadad"/>
    <rect id="Rectangle_19" data-name="Rectangle 19" width="5" height="6" transform="translate(322.793 1942.61) rotate(28)" fill="#707070"/>
    <path id="Exclusion_4" data-name="Exclusion 4" d="M-3178.971,470h0c-1.066,0-1.937-.4-3.454-1.589a24.772,24.772,0,0,1-3.643-4.034l-.019-.023c-.893-1.127-1.815-2.292-2.863-3.436a12.023,12.023,0,0,0-4.562-2.881,29,29,0,0,0-5.608-1.484,45.264,45.264,0,0,0-6.876-.63h0a45.261,45.261,0,0,0-6.875.63,29.011,29.011,0,0,0-5.609,1.483,12.041,12.041,0,0,0-4.563,2.881c-1.056,1.154-1.983,2.325-2.878,3.457a24.822,24.822,0,0,1-3.646,4.036c-1.515,1.188-2.387,1.589-3.455,1.589-.145,0-.3-.007-.463-.022l-.044,0a2.8,2.8,0,0,1-2.291-1.287c-.756-1.1-1.151-2.928-1.173-5.423a60.679,60.679,0,0,1,1.728-12.837q.238-1.073.456-2.079l.031-.144.029-.131v-.007c.851-3.893,1.522-6.969,2.3-9.477a14.071,14.071,0,0,1,2.876-5.661,9.761,9.761,0,0,1,7.12-2.927,9.423,9.423,0,0,1,3.627.677,25.535,25.535,0,0,0,6.576,1.881,46.393,46.393,0,0,0,6.25.369,46.349,46.349,0,0,0,6.25-.369,25.533,25.533,0,0,0,6.575-1.881,9.427,9.427,0,0,1,3.628-.677,9.759,9.759,0,0,1,7.119,2.927,14.068,14.068,0,0,1,2.876,5.662c.782,2.506,1.453,5.58,2.3,9.471l0,.015.1.463c.124.566.267,1.224.414,1.888A60.67,60.67,0,0,1-3175,463.264c-.022,2.495-.417,4.319-1.174,5.423a2.8,2.8,0,0,1-2.289,1.287l-.045,0C-3178.675,469.993-3178.826,470-3178.971,470Zm-19.279-24.657a4.268,4.268,0,0,0-4.133,4.383,4.269,4.269,0,0,0,4.133,4.384,4.269,4.269,0,0,0,4.134-4.384A4.269,4.269,0,0,0-3198.25,445.343Zm-15.5,0a4.269,4.269,0,0,0-4.133,4.383,4.269,4.269,0,0,0,4.133,4.384,4.269,4.269,0,0,0,4.134-4.384A4.269,4.269,0,0,0-3213.75,445.343Zm24.026-2.74a1.868,1.868,0,0,0-1.809,1.918,1.868,1.868,0,0,0,1.809,1.918,1.867,1.867,0,0,0,1.808-1.918A1.867,1.867,0,0,0-3189.724,442.6Zm-32.809-7.123a4.268,4.268,0,0,0-4.133,4.383,4.269,4.269,0,0,0,4.133,4.384,4.269,4.269,0,0,0,4.134-4.384A4.269,4.269,0,0,0-3222.533,435.48Zm36.942,2.74a1.868,1.868,0,0,0-1.808,1.918,1.868,1.868,0,0,0,1.808,1.918,1.868,1.868,0,0,0,1.808-1.918A1.868,1.868,0,0,0-3185.591,438.219Zm-8.267,0a1.868,1.868,0,0,0-1.809,1.918,1.868,1.868,0,0,0,1.809,1.918,1.868,1.868,0,0,0,1.809-1.918A1.868,1.868,0,0,0-3193.858,438.219Zm4.134-4.384a1.868,1.868,0,0,0-1.809,1.918,1.868,1.868,0,0,0,1.809,1.918,1.867,1.867,0,0,0,1.808-1.918A1.867,1.867,0,0,0-3189.724,433.835Z" transform="translate(3380 1485.2)" fill="#0bf593"/>
  </g>
</svg>
