<svg xmlns="http://www.w3.org/2000/svg" width="62" height="40" viewBox="0 0 62 40">
  <path id="Exclusion_6" data-name="Exclusion 6" d="M-3178.971,470h0c-1.066,0-1.937-.4-3.454-1.589a24.772,24.772,0,0,1-3.643-4.034l-.019-.023c-.893-1.127-1.815-2.292-2.863-3.436a12.023,12.023,0,0,0-4.562-2.881,29,29,0,0,0-5.608-1.484,45.264,45.264,0,0,0-6.876-.63h0a45.261,45.261,0,0,0-6.875.63,29.011,29.011,0,0,0-5.609,1.483,12.041,12.041,0,0,0-4.563,2.881c-1.056,1.154-1.983,2.325-2.878,3.457a24.822,24.822,0,0,1-3.646,4.036c-1.515,1.188-2.387,1.589-3.455,1.589-.145,0-.3-.007-.463-.022l-.044,0a2.8,2.8,0,0,1-2.291-1.287c-.756-1.1-1.151-2.928-1.173-5.423a60.679,60.679,0,0,1,1.728-12.837q.238-1.073.456-2.079l.031-.144.029-.131v-.007c.851-3.893,1.522-6.969,2.3-9.477a14.071,14.071,0,0,1,2.876-5.661,9.761,9.761,0,0,1,7.12-2.927,9.423,9.423,0,0,1,3.627.677,25.535,25.535,0,0,0,6.576,1.881,46.393,46.393,0,0,0,6.25.369,46.349,46.349,0,0,0,6.25-.369,25.533,25.533,0,0,0,6.575-1.881,9.427,9.427,0,0,1,3.628-.677,9.759,9.759,0,0,1,7.119,2.927,14.068,14.068,0,0,1,2.876,5.662c.782,2.506,1.453,5.58,2.3,9.471l0,.015.1.463c.124.566.267,1.224.414,1.888A60.67,60.67,0,0,1-3175,463.264c-.022,2.495-.417,4.319-1.174,5.423a2.8,2.8,0,0,1-2.289,1.287l-.045,0C-3178.675,469.993-3178.826,470-3178.971,470Zm-19.279-24.657a4.268,4.268,0,0,0-4.133,4.383,4.269,4.269,0,0,0,4.133,4.384,4.269,4.269,0,0,0,4.134-4.384A4.269,4.269,0,0,0-3198.25,445.343Zm-15.5,0a4.269,4.269,0,0,0-4.133,4.383,4.269,4.269,0,0,0,4.133,4.384,4.269,4.269,0,0,0,4.134-4.384A4.269,4.269,0,0,0-3213.75,445.343Zm24.026-2.74a1.868,1.868,0,0,0-1.809,1.918,1.868,1.868,0,0,0,1.809,1.918,1.867,1.867,0,0,0,1.808-1.918A1.867,1.867,0,0,0-3189.724,442.6Zm-32.809-7.123a4.268,4.268,0,0,0-4.133,4.383,4.269,4.269,0,0,0,4.133,4.384,4.269,4.269,0,0,0,4.134-4.384A4.269,4.269,0,0,0-3222.533,435.48Zm36.942,2.74a1.868,1.868,0,0,0-1.808,1.918,1.868,1.868,0,0,0,1.808,1.918,1.868,1.868,0,0,0,1.808-1.918A1.868,1.868,0,0,0-3185.591,438.219Zm-8.267,0a1.868,1.868,0,0,0-1.809,1.918,1.868,1.868,0,0,0,1.809,1.918,1.868,1.868,0,0,0,1.809-1.918A1.868,1.868,0,0,0-3193.858,438.219Zm4.134-4.384a1.868,1.868,0,0,0-1.809,1.918,1.868,1.868,0,0,0,1.809,1.918,1.867,1.867,0,0,0,1.808-1.918A1.867,1.867,0,0,0-3189.724,433.835Z" transform="translate(3237 -430)" fill="#0bf593"/>
</svg>
